<svg width="22" height="22" viewBox="0 0 22 22" fill="none" xmlns="http://www.w3.org/2000/svg">
<path d="M14.037 3.6665C13.9937 3.88926 13.9721 4.11568 13.9726 4.3426C13.9726 6.37851 15.6254 8.02894 17.6643 8.02894C17.8888 8.02784 18.1128 8.00628 18.3333 7.96455V15.2728C18.3333 18.3475 16.5197 20.1665 13.4406 20.1665H6.73417C3.64697 20.1665 1.83334 18.3475 1.83334 15.2728V8.57626C1.83334 5.50163 3.64697 3.6665 6.73417 3.6665H14.037ZM14.0403 9.16796C13.861 9.19374 13.6999 9.29099 13.5937 9.43748L11.3851 12.2787L8.87022 10.2987C8.72664 10.1868 8.54398 10.1375 8.3635 10.1617C8.18301 10.1859 8.0199 10.2817 7.91101 10.4275L5.20266 13.9207C5.10746 14.0393 5.05621 14.1872 5.05757 14.3392L5.05995 14.4404C5.0862 14.7062 5.26853 14.9359 5.52968 15.0183C5.82348 15.1111 6.14293 14.994 6.30696 14.7336L8.57198 11.8038L11.0869 13.7758C11.2299 13.8911 11.4138 13.9434 11.5962 13.9206C11.7786 13.8978 11.9439 13.802 12.0541 13.655L14.6738 10.2746V10.2585C14.8981 9.9571 14.8409 9.53216 14.5449 9.30065C14.4016 9.19005 14.2195 9.14217 14.0403 9.16796Z" fill="#9896A3"/>
<path opacity="0.4" d="M17.875 6.41659C19.1407 6.41659 20.1667 5.39057 20.1667 4.12492C20.1667 2.85927 19.1407 1.83325 17.875 1.83325C16.6093 1.83325 15.5833 2.85927 15.5833 4.12492C15.5833 5.39057 16.6093 6.41659 17.875 6.41659Z" fill="#9896A3"/>
</svg>
