<svg width="22" height="22" viewBox="0 0 22 22" fill="none" xmlns="http://www.w3.org/2000/svg">
<path opacity="0.4" d="M14.7359 1.83325H17.8397C19.1251 1.83325 20.1667 2.88362 20.1667 4.17988V7.3099C20.1667 8.60617 19.1251 9.65653 17.8397 9.65653H14.7359C13.4505 9.65653 12.4089 8.60617 12.4089 7.3099V4.17988C12.4089 2.88362 13.4505 1.83325 14.7359 1.83325Z" fill="#56555C"/>
<path d="M7.26411 12.3433C8.54952 12.3433 9.59109 13.3937 9.59109 14.6899V17.82C9.59109 19.1153 8.54952 20.1666 7.26411 20.1666H4.16031C2.8749 20.1666 1.83333 19.1153 1.83333 17.82V14.6899C1.83333 13.3937 2.8749 12.3433 4.16031 12.3433H7.26411ZM17.8397 12.3433C19.1251 12.3433 20.1667 13.3937 20.1667 14.6899V17.82C20.1667 19.1153 19.1251 20.1666 17.8397 20.1666H14.7359C13.4505 20.1666 12.4089 19.1153 12.4089 17.82V14.6899C12.4089 13.3937 13.4505 12.3433 14.7359 12.3433H17.8397ZM7.26411 1.83325C8.54952 1.83325 9.59109 2.88362 9.59109 4.17988V7.3099C9.59109 8.60617 8.54952 9.65653 7.26411 9.65653H4.16031C2.8749 9.65653 1.83333 8.60617 1.83333 7.3099V4.17988C1.83333 2.88362 2.8749 1.83325 4.16031 1.83325H7.26411Z" fill="#56555C"/>
</svg>
