<svg width="22" height="22" viewBox="0 0 22 22" fill="none" xmlns="http://www.w3.org/2000/svg">
<path d="M14.963 16.7493C14.5464 16.7401 14.2113 16.3918 14.2113 15.9701C14.2023 15.5484 14.5373 15.201 14.9539 15.1918H14.963C15.3886 15.1918 15.7327 15.5402 15.7327 15.9701C15.7327 16.4009 15.3886 16.7493 14.963 16.7493ZM11.2681 13.3759C10.8515 13.3952 10.5074 13.0643 10.4893 12.6435C10.4893 12.2218 10.8153 11.8735 11.2319 11.8543C11.6394 11.8543 11.9745 12.176 11.9835 12.5876C12.0016 13.0102 11.6756 13.3585 11.2681 13.3759ZM11.2681 16.7034C10.8515 16.7227 10.5074 16.3918 10.4893 15.9701C10.4893 15.5484 10.8153 15.201 11.2319 15.1818C11.6394 15.1818 11.9745 15.5035 11.9835 15.916C12.0016 16.3377 11.6756 16.686 11.2681 16.7034ZM7.5461 13.3759C7.12953 13.3952 6.7854 13.0643 6.76729 12.6435C6.76729 12.2218 7.0933 11.8735 7.50988 11.8543C7.9174 11.8543 8.25247 12.176 8.26153 12.5876C8.27964 13.0102 7.95362 13.3585 7.5461 13.3759ZM7.53705 16.7034C7.12047 16.7227 6.77634 16.3918 6.75823 15.9701C6.75823 15.5484 7.08425 15.201 7.50082 15.1818C7.90834 15.1818 8.24341 15.5035 8.25247 15.916C8.27058 16.3377 7.94457 16.686 7.53705 16.7034ZM14.2204 12.6343C14.2204 12.2127 14.5464 11.8735 14.963 11.8643C15.3705 11.8643 15.6965 12.1934 15.7146 12.5977C15.7237 13.0193 15.3976 13.3677 14.9901 13.3759C14.5735 13.3851 14.2294 13.0643 14.2204 12.6435V12.6343ZM3 8.65234V15.6309C3 18.5276 4.82931 20.3334 7.70006 20.3334H14.7909C17.6888 20.3334 19.5 18.5643 19.5 15.6868V8.65234H3Z" fill="#FAF9FF"/>
<path opacity="0.4" d="M3.00308 8.65214C3.01486 8.11406 3.06013 7.04614 3.14526 6.70239C3.57995 4.76914 5.05607 3.54081 7.16612 3.36572H15.3346C17.4265 3.54997 18.9208 4.78656 19.3555 6.70239C19.4397 7.03697 19.485 8.11314 19.4967 8.65214H3.00308Z" fill="#FAF9FF"/>
<path d="M7.86279 6.2075C8.26126 6.2075 8.5601 5.90592 8.5601 5.50167V2.70675C8.5601 2.3025 8.26126 2 7.86279 2C7.46433 2 7.16548 2.3025 7.16548 2.70675V5.50167C7.16548 5.90592 7.46433 6.2075 7.86279 6.2075Z" fill="#FAF9FF"/>
<path d="M14.637 6.2075C15.0264 6.2075 15.3343 5.90592 15.3343 5.50167V2.70675C15.3343 2.3025 15.0264 2 14.637 2C14.2386 2 13.9397 2.3025 13.9397 2.70675V5.50167C13.9397 5.90592 14.2386 6.2075 14.637 6.2075Z" fill="#FAF9FF"/>
</svg>
