<svg width="22" height="22" viewBox="0 0 22 22" fill="none" xmlns="http://www.w3.org/2000/svg">
<path opacity="0.4" d="M18.756 14.6282H12.7284C11.9655 14.6282 11.3463 15.2366 11.3463 15.9861C11.3463 16.7345 11.9655 17.3439 12.7284 17.3439H18.756C19.5188 17.3439 20.1381 16.7345 20.1381 15.9861C20.1381 15.2366 19.5188 14.6282 18.756 14.6282Z" fill="#56555C"/>
<path opacity="0.4" d="M20.1371 5.62837C20.1371 4.87988 19.5178 4.27148 18.756 4.27148H12.7284C11.9655 4.27148 11.3463 4.87988 11.3463 5.62837C11.3463 6.37785 11.9655 6.98625 12.7284 6.98625H18.756C19.5178 6.98625 20.1371 6.37785 20.1371 5.62837Z" fill="#56555C"/>
<path d="M8.13794 5.62826C8.13794 7.33938 6.7273 8.72628 4.98564 8.72628C3.245 8.72628 1.83334 7.33938 1.83334 5.62826C1.83334 3.91815 3.245 2.53125 4.98564 2.53125C6.7273 2.53125 8.13794 3.91815 8.13794 5.62826Z" fill="#56555C"/>
<path d="M8.13794 15.9493C8.13794 17.6594 6.7273 19.0463 4.98564 19.0463C3.245 19.0463 1.83334 17.6594 1.83334 15.9493C1.83334 14.2382 3.245 12.8513 4.98564 12.8513C6.7273 12.8513 8.13794 14.2382 8.13794 15.9493Z" fill="#56555C"/>
</svg>
