<svg width="49" height="49" viewBox="0 0 49 49" fill="none" xmlns="http://www.w3.org/2000/svg">
<path fill-rule="evenodd" clip-rule="evenodd" d="M19.6878 4.5C21.6294 4.502 23.4792 5.41 24.6388 6.928L26.4988 9.352C27.0888 10.12 28.026 10.578 29.006 10.58H34.7818C42.6667 10.58 46.3397 14.538 46.3397 23.036L46.2825 32.97C46.2805 40.906 41.2457 45.838 33.1403 45.838H17.2521C9.13033 45.838 4.08333 40.904 4.08333 32.964V17.366C4.08333 8.828 7.96045 4.5 15.6045 4.5H19.6878ZM19.6857 7.5H15.6045C9.67545 7.5 7.14583 10.452 7.14583 17.366V32.964C7.14583 39.332 10.7351 42.838 17.2521 42.838H33.1403C39.641 42.838 43.22 39.332 43.22 32.964V32.958L43.2772 23.028C43.2772 16.23 40.8966 13.58 34.7818 13.58H29.0039C27.0664 13.578 25.2166 12.672 24.0529 11.156L22.1888 8.728C21.6029 7.958 20.6657 7.502 19.6857 7.5ZM34.1289 28.9256C34.9741 28.9256 35.6602 29.5976 35.6602 30.4256C35.6602 31.2536 34.9741 31.9256 34.1289 31.9256H16.2949C15.4497 31.9256 14.7637 31.2536 14.7637 30.4256C14.7637 29.5976 15.4497 28.9256 16.2949 28.9256H34.1289Z" fill="#56555C"/>
</svg>
