<svg width="22" height="22" viewBox="0 0 22 22" fill="none" xmlns="http://www.w3.org/2000/svg">
<path opacity="0.4" d="M15.4773 4.68853H12.7795C12.1074 4.69297 11.4693 4.39401 11.0434 3.87513L10.155 2.64691C9.73626 2.12348 9.09819 1.82312 8.42711 1.83351H6.51989C3.09668 1.83351 1.83334 3.8426 1.83334 7.25885V10.9517C1.82909 11.3578 20.1627 11.3573 20.1639 10.9517V9.87798C20.1802 6.46173 18.9494 4.68853 15.4773 4.68853Z" fill="#9896A3"/>
<path d="M15.4692 4.68857C16.6652 4.59607 17.8524 4.95614 18.7946 5.69718C18.9031 5.7892 19.0039 5.88985 19.0961 5.99814C19.3894 6.34105 19.6161 6.7355 19.7645 7.16129C20.0565 8.03642 20.1917 8.95607 20.1639 9.87803V14.6933C20.1627 15.0989 20.1327 15.5039 20.0742 15.9053C19.9627 16.6136 19.7136 17.2934 19.3406 17.9062C19.1693 18.2023 18.9611 18.4756 18.7212 18.7196C17.6351 19.7164 16.1929 20.2353 14.7193 20.1593H7.26974C5.7938 20.2347 4.34924 19.7161 3.25968 18.7196C3.02263 18.4751 2.81726 18.2018 2.6484 17.9062C2.2777 17.2938 2.03381 16.6134 1.93115 15.9053C1.86587 15.5046 1.83334 15.0993 1.83334 14.6933V9.87803C1.83334 9.47587 1.85495 9.074 1.89855 8.67421C1.923 8.48712 1.98005 8.30818 1.98005 8.12923C2.06279 7.64677 2.21372 7.17846 2.42833 6.73833C3.06407 5.37996 4.36815 4.68857 6.50359 4.68857H15.4692ZM15.6892 12.733H6.38948C5.97085 12.733 5.63148 13.0717 5.63148 13.4895C5.63148 13.9073 5.97085 14.246 6.38948 14.246H15.6322C15.8346 14.2548 16.0322 14.1823 16.1807 14.0447C16.3292 13.9072 16.4164 13.716 16.4228 13.5139C16.4342 13.3362 16.3757 13.1611 16.2598 13.0259C16.1264 12.8441 15.915 12.7356 15.6892 12.733Z" fill="#9896A3"/>
</svg>
