<svg width="22" height="22" viewBox="0 0 22 22" fill="none" xmlns="http://www.w3.org/2000/svg">
<path d="M11.011 13.5944C9.54021 13.5944 8.35048 12.4486 8.35048 11.0095C8.35048 9.57028 9.54021 8.41528 11.011 8.41528C12.4817 8.41528 13.6434 9.57028 13.6434 11.0095C13.6434 12.4486 12.4817 13.5944 11.011 13.5944Z" fill="black"/>
<path opacity="0.4" d="M19.4609 13.1727C19.2829 12.8977 19.0299 12.6227 18.7021 12.4485C18.4398 12.3202 18.2711 12.1093 18.1212 11.8618C17.6435 11.0735 17.9245 10.0377 18.7208 9.57016C19.6576 9.04766 19.9574 7.8835 19.414 6.976L18.7864 5.89433C18.2524 4.98683 17.0814 4.666 16.154 5.19766C15.3296 5.63766 14.271 5.34433 13.7933 4.56516C13.6434 4.3085 13.5591 4.0335 13.5778 3.7585C13.6059 3.401 13.4935 3.06183 13.3249 2.78683C12.9782 2.2185 12.3506 1.8335 11.6574 1.8335H10.3365C9.65262 1.85183 9.02497 2.2185 8.67836 2.78683C8.50037 3.06183 8.39732 3.401 8.41605 3.7585C8.43479 4.0335 8.35048 4.3085 8.20059 4.56516C7.72283 5.34433 6.66425 5.63766 5.84924 5.19766C4.91244 4.666 3.75082 4.98683 3.20748 5.89433L2.57983 6.976C2.04585 7.8835 2.34563 9.04766 3.27305 9.57016C4.06933 10.0377 4.35037 11.0735 3.88197 11.8618C3.72272 12.1093 3.55409 12.3202 3.29179 12.4485C2.97328 12.6227 2.69224 12.8977 2.54235 13.1727C2.19574 13.741 2.21448 14.456 2.56109 15.0518L3.20748 16.1518C3.55409 16.7385 4.20048 17.1052 4.87497 17.1052C5.19348 17.1052 5.5682 17.0135 5.86797 16.8302C6.10217 16.6743 6.38321 16.6193 6.69235 16.6193C7.61978 16.6193 8.39732 17.3802 8.41605 18.2877C8.41605 19.3418 9.27791 20.1668 10.3646 20.1668H11.6386C12.7159 20.1668 13.5778 19.3418 13.5778 18.2877C13.6059 17.3802 14.3834 16.6193 15.3109 16.6193C15.6106 16.6193 15.8917 16.6743 16.1352 16.8302C16.435 17.0135 16.8004 17.1052 17.1282 17.1052C17.7934 17.1052 18.4398 16.7385 18.7864 16.1518L19.4421 15.0518C19.7794 14.4377 19.8075 13.741 19.4609 13.1727Z" fill="black"/>
</svg>
