<svg width="25" height="25" viewBox="0 0 25 25" fill="none" xmlns="http://www.w3.org/2000/svg">
<path opacity="0.4" d="M16.7453 2.08325H20.2724C21.7331 2.08325 22.9167 3.27685 22.9167 4.74988V8.30672C22.9167 9.77975 21.7331 10.9733 20.2724 10.9733H16.7453C15.2846 10.9733 14.101 9.77975 14.101 8.30672V4.74988C14.101 3.27685 15.2846 2.08325 16.7453 2.08325Z" fill="#9896A3"/>
<path d="M8.25468 14.0265C9.71538 14.0265 10.899 15.2201 10.899 16.6931V20.25C10.899 21.722 9.71538 22.9166 8.25468 22.9166H4.72763C3.26694 22.9166 2.08334 21.722 2.08334 20.25V16.6931C2.08334 15.2201 3.26694 14.0265 4.72763 14.0265H8.25468ZM20.2724 14.0265C21.7331 14.0265 22.9167 15.2201 22.9167 16.6931V20.25C22.9167 21.722 21.7331 22.9166 20.2724 22.9166H16.7453C15.2846 22.9166 14.101 21.722 14.101 20.25V16.6931C14.101 15.2201 15.2846 14.0265 16.7453 14.0265H20.2724ZM8.25468 2.08325C9.71538 2.08325 10.899 3.27685 10.899 4.74988V8.30672C10.899 9.77975 9.71538 10.9733 8.25468 10.9733H4.72763C3.26694 10.9733 2.08334 9.77975 2.08334 8.30672V4.74988C2.08334 3.27685 3.26694 2.08325 4.72763 2.08325H8.25468Z" fill="#9896A3"/>
</svg>
