<svg width="22" height="22" viewBox="0 0 22 22" fill="none" xmlns="http://www.w3.org/2000/svg">
<path fill-rule="evenodd" clip-rule="evenodd" d="M14.9729 1.83333C18.0795 1.83333 20.1667 4.01316 20.1667 7.25633V14.7437C20.1667 17.9868 18.0795 20.1667 14.972 20.1667H7.02629C3.91971 20.1667 1.83337 17.9868 1.83337 14.7437V7.25633C1.83337 4.01316 3.91971 1.83333 7.02629 1.83333H14.9729ZM14.9729 3.20833H7.02629C4.70712 3.20833 3.20837 4.79691 3.20837 7.25633V14.7437C3.20837 17.2031 4.70712 18.7917 7.02629 18.7917H14.972C17.292 18.7917 18.7917 17.2031 18.7917 14.7437V7.25633C18.7917 4.79691 17.293 3.20833 14.9729 3.20833ZM10.9992 6.30996C11.3787 6.30996 11.6867 6.61796 11.6867 6.99746V10.6055L14.4605 12.2582C14.786 12.4535 14.8932 12.8751 14.6989 13.2015C14.5696 13.4169 14.3414 13.537 14.1076 13.537C13.9875 13.537 13.8665 13.5058 13.7556 13.4407L10.6472 11.5863C10.44 11.4616 10.3117 11.237 10.3117 10.996V6.99746C10.3117 6.61796 10.6197 6.30996 10.9992 6.30996Z" fill="#56555C"/>
</svg>
